<?xml version="1.0" encoding="UTF-8" standalone="no"?>
<svg
   height="16"
   viewBox="0 0 16 16"
   width="16"
   version="1.1"
   id="svg2"
   sodipodi:docname="hurtbox3d.svg"
   inkscape:version="1.3 (0e150ed6c4, 2023-07-21)"
   xmlns:inkscape="http://www.inkscape.org/namespaces/inkscape"
   xmlns:sodipodi="http://sodipodi.sourceforge.net/DTD/sodipodi-0.dtd"
   xmlns="http://www.w3.org/2000/svg"
   xmlns:svg="http://www.w3.org/2000/svg">
  <defs
     id="defs2" />
  <sodipodi:namedview
     id="namedview2"
     pagecolor="#505050"
     bordercolor="#eeeeee"
     borderopacity="1"
     inkscape:showpageshadow="0"
     inkscape:pageopacity="0"
     inkscape:pagecheckerboard="0"
     inkscape:deskcolor="#505050"
     inkscape:zoom="73.3125"
     inkscape:cx="8.0068201"
     inkscape:cy="8"
     inkscape:window-width="1350"
     inkscape:window-height="1237"
     inkscape:window-x="2031"
     inkscape:window-y="247"
     inkscape:window-maximized="0"
     inkscape:current-layer="svg2" />
  <g
     fill="#8da5f3"
     id="g2"
     style="fill:#fc7f7f;fill-opacity:1">
    <path
       d="m1 1v4h2v-2h2v-2zm10 0v2h2v2h2v-4zm-10 10v4h4v-2h-2v-2zm12 0v2h-2v2h4v-4z"
       id="path1"
       style="fill:#fc7f7f;fill-opacity:1" />
    <path
       d="m4.5203608 9.3160287c-.0406702-.0353364-1.1874377-1.0827618-1.1874377-2.3328717 0-1.5261341.932082-2.4375475 2.4895522-2.4375475.9120802 0 1.7661552.9267481 2.1775247 1.3334505.4113695-.4067024 1.2654445-1.3334505 2.177525-1.3334505 1.55747 0 2.489552.9114134 2.489552 2.4375475 0 1.2501099-1.146101 2.2975353-1.193438 2.3442061l-3.2442855 3.1249419a.32336176.32336176 0 0 1 -.4587069 0z"
       stroke-width=".666725"
       id="path2"
       style="fill:#fc7f7f;fill-opacity:1" />
  </g>
</svg>
